<svg xmlns="http://www.w3.org/2000/svg" width="32" height="32" viewBox="0 0 32 32">
  <circle cx="16" cy="16" r="16" fill="#4D6080"/>
  <g transform="translate(8, 8)" stroke="white" stroke-width="1.5" stroke-linecap="round" stroke-linejoin="round" fill="none">
    <circle cx="8" cy="8" r="2"/>
    <path d="M8 11A3 3 0 1 1 5 8 3 3 0 1 1 8 5a3 3 0 1 1 3 3 3 3 0 1 1-3 3"/>
    <path d="M8 5V6"/>
    <path d="M5 8H6"/>
    <path d="M11 8H10"/>
    <path d="M8 11V10"/>
    <path d="m5.33 5.33 1.25 1.25"/>
    <path d="m9.42 6.58 1.25-1.25"/>
    <path d="m5.33 10.67 1.25-1.25"/>
    <path d="m9.42 9.42 1.25 1.25"/>
  </g>
</svg>
